{"title":"Unfriended Dark Web 2018 1080p WEB-DL DD 5.1 x264 [MW]","magnet":"magnet:?xt=urn:btih:c6b6e383893e19eec5c2d670b140d819c77623e5&dn=Unfriended+Dark+Web+2018+1080p+WEB-DL+DD+5.1+x264+%5BMW%5D&tr=udp%3A%2F%2Ftracker.leechers-paradise.org%3A6969&tr=udp%3A%2F%2Fzer0day.ch%3A1337&tr=udp%3A%2F%2Fopen.demonii.com%3A1337&tr=udp%3A%2F%2Ftracker.coppersurfer.tk%3A6969&tr=udp%3A%2F%2Fexodus.desync.com%3A6969","uploader":"MFreaky","categoryP":"video","categoryS":"hd___movies","size":"2006486754","seeders":"1","leechers":"0","description":" <a href=\"https://pichub.site/image/EFVFr\" rel=\"nofollow\" target=\"_NEW\">https://pichub.site/image/EFVFr</a> <a href=\"\nhttps://pichub.site/image/EF70j\" rel=\"nofollow\" target=\"_NEW\">\nhttps://pichub.site/image/EF70j</a> <a href=\"\nhttps://pichub.site/image/EFkdk\" rel=\"nofollow\" target=\"_NEW\">\nhttps://pichub.site/image/EFkdk</a> <a href=\"\nhttps://pichub.site/image/EFwuQ\" rel=\"nofollow\" target=\"_NEW\">\nhttps://pichub.site/image/EFwuQ</a> <a href=\"\nhttps://pichub.site/image/EFy3v\" rel=\"nofollow\" target=\"_NEW\">\nhttps://pichub.site/image/EFy3v</a>\r\n\r\nIMDB  <a href=\"\nhttps://www.imdb.com/title/tt4761916/\" rel=\"nofollow\" target=\"_NEW\">\nhttps://www.imdb.com/title/tt4761916/</a>\r\n\r\n\r\nVideo\r\nFormat                                   : AVC\r\nFormat/Info                              : Advanced Video Codec\r\nFormat profile                           : High@L4.1\r\nFormat settings                          : CABAC / 4 Ref Frames\r\nFormat settings, CABAC                   : Yes\r\nFormat settings, RefFrames               : 4 frames\r\nCodec ID                                 : V_MPEG4/ISO/AVC\r\nDuration                                 : 1 h 32 min\r\nBit rate                                 : 2 500 kb/s\r\nWidth                                    : 1 916 pixels\r\nHeight                                   : 1 076 pixels\r\nDisplay aspect ratio                     : 16:9\r\nFrame rate mode                          : Constant\r\nFrame rate                               : 23.976 (24000/1001) FPS\r\nColor space                              : YUV\r\nChroma subsampling                       : 4:2:0\r\nBit depth                                : 8 bits\r\nBits/(Pixel*Frame)                       : 0.051\r\nStream size                              : 1.62 GiB (87%)\r\nWriting library                          : x264 core 155 r2901 7d0ff22\r\n\r\nAudio\r\nFormat                                   : AC-3\r\nFormat/Info                              : Audio Coding 3\r\nCodec ID                                 : A_AC3\r\nDuration                                 : 1 h 32 min\r\nBit rate mode                            : Constant\r\nBit rate                                 : 384 kb/s\r\nChannel(s)                               : 6 channels\r\nChannel positions                        : Front: L C R, Side: L R, LFE\r\nSampling rate                            : 48.0 kHz\r\nFrame rate                               : 31.250 FPS (1536 SPF)\r\nBit depth                                : 16 bits\r\nStream size                              : 254 MiB (13%)\r\nLanguage                                 : English","last_updated":"2018-10-03T12:05:59.409Z","parsed":{"xt":"urn:btih:c6b6e383893e19eec5c2d670b140d819c77623e5","dn":"Unfriended Dark Web 2018 1080p WEB-DL DD 5.1 x264 [MW]","tr":["udp://exodus.desync.com:6969","udp://open.demonii.com:1337","udp://tracker.coppersurfer.tk:6969","udp://tracker.leechers-paradise.org:6969","udp://zer0day.ch:1337"],"infoHash":"c6b6e383893e19eec5c2d670b140d819c77623e5","infoHashBuffer":{"type":"Buffer","data":[198,182,227,131,137,62,25,238,197,194,214,112,177,64,216,25,199,118,35,229]},"name":"Unfriended Dark Web 2018 1080p WEB-DL DD 5.1 x264 [MW]","announce":["udp://exodus.desync.com:6969","udp://open.demonii.com:1337","udp://tracker.coppersurfer.tk:6969","udp://tracker.leechers-paradise.org:6969","udp://zer0day.ch:1337"],"urlList":[]}}